<svg xmlns="http://www.w3.org/2000/svg" xmlns:xlink="http://www.w3.org/1999/xlink" width="81.792" height="81.798" viewBox="0 0 81.792 81.798">
  <defs>
    <linearGradient id="linear-gradient" x1="-0.268" x2="0.925" y2="1" gradientUnits="objectBoundingBox">
      <stop offset="0" stop-color="#0d9dfd"/>
      <stop offset="1" stop-color="#c34b4b"/>
    </linearGradient>
  </defs>
  <g id="line_copy" data-name="line copy" transform="translate(-2.002 -2)">
    <path id="Path_1" data-name="Path 1" d="M29.449,2A40.285,40.285,0,0,0,11.366,6.207a2.921,2.921,0,1,0,2.571,5.229A35.056,35.056,0,0,1,64.505,42.9c0,14.256-7.654,30.148-20.449,32.135A9.523,9.523,0,0,1,36.139,73.4a14.607,14.607,0,0,1-3.769-10.283A20.449,20.449,0,0,0,49.9,42.9V25.371a2.921,2.921,0,0,0-2.921-2.921H38.213a2.921,2.921,0,0,0,0,5.843h5.843V42.9a14.607,14.607,0,1,1-29.213,0V28.292h5.843a2.921,2.921,0,0,0,0-5.843H11.921A2.921,2.921,0,0,0,9,25.371V42.9A20.449,20.449,0,0,0,26.528,63.114c.38,6.719,2.279,11.685,5.667,14.607a13.643,13.643,0,0,0,9.465,3.155,24.978,24.978,0,0,0,3.213-.2C61.409,78.276,70.348,59.4,70.348,42.9A40.9,40.9,0,0,0,29.449,2Z" transform="translate(13.446)" fill="url(#linear-gradient)"/>
    <path id="Path_2" data-name="Path 2" d="M16.6,52.844a11.89,11.89,0,0,0-3.681.643A35.056,35.056,0,0,1,17.6,11.04,2.921,2.921,0,1,0,13.39,7.009,40.9,40.9,0,0,0,8.015,56.671,11.685,11.685,0,1,0,16.6,52.844Zm0,17.528a5.843,5.843,0,1,1,5.843-5.843A5.843,5.843,0,0,1,16.6,70.372Z" transform="translate(0 7.583)" fill="url(#linear-gradient)"/>
  </g>
</svg>
